Coordinates
version=1
nRows=24
nColumns=24
inDegrees=yes

Units are S.I. units (second, meters, Newtons, ...)
Angles are in degrees.

endheader
time	pelvis_tilt	pelvis_list	pelvis_rotation	pelvis_tx	pelvis_ty	pelvis_tz	hip_flexion_r	hip_adduction_r	hip_rotation_r	knee_angle_r	ankle_angle_r	subtalar_angle_r	mtp_angle_r	hip_flexion_l	hip_adduction_l	hip_rotation_l	knee_angle_l	ankle_angle_l	subtalar_angle_l	mtp_angle_l	lumbar_extension	lumbar_bending	lumbar_rotation
      4.30500000	     -4.42545509	     -8.01136661	      2.02198706	      0.02586118	     -0.01911933	     -0.10439047	     12.71189285	     16.65626320	      9.59548148	    -19.42940125	      0.35875876	     -4.88427307	     10.01056460	     30.04278326	     -9.35309078	     -4.49661408	    -68.74498681	     -8.56631051	     -1.21275276	      4.32532034	      5.60726006	      6.38135731	      0.16656243
      4.31000000	     -4.40284263	     -7.83346141	      1.77856296	      0.03188133	     -0.01853404	     -0.10423400	     11.92080063	     16.54271381	     10.15451236	    -19.05996366	      0.57799755	     -5.00355011	      9.77869433	     30.71093741	     -9.10279101	     -4.67540872	    -68.00728541	     -7.83314200	     -1.30390218	      4.41640792	      5.48465353	      6.23197865	      0.45371257
      4.31500000	     -4.37178002	     -7.66190876	      1.51488993	      0.03797009	     -0.01793997	     -0.10400694	     11.10099483	     16.42839036	     10.70088723	    -18.65309534	      0.75776879	     -5.09041320	      9.53158224	     31.32640408	     -8.89510981	     -4.88756627	    -67.17462202	     -7.15535004	     -1.30801023	      4.49299014	      5.36755572	      6.08723002	      0.80165047
      4.32000000	     -4.35901676	     -7.48641935	      1.26555967	      0.04400673	     -0.01744035	     -0.10378802	     10.32960657	     16.29509697	     11.20364654	    -18.27746834	      0.96690244	     -5.15363977	      9.36319855	     31.94332453	     -8.67915992	     -5.08565382	    -66.26693961	     -6.48823939	     -1.26394552	      4.56761794	      5.25981301	      5.93173831	      1.11124432
      4.32500000	     -4.37792421	     -7.30006079	      1.03290994	      0.05000142	     -0.01704606	     -0.10358628	      9.62456213	     16.13546564	     11.64421000	    -17.93560559	      1.20335590	     -5.19791377	      9.29961443	     32.57153801	     -8.44572324	     -5.27208270	    -65.27969701	     -5.83542479	     -1.17569081	      4.64627047	      5.18332165	      5.75802779	      1.37476167
      4.33000000	     -4.36609279	     -7.12425301	      0.77474922	      0.05601543	     -0.01662996	     -0.10334428	      8.87312891	     15.98044721	     12.10995684	    -17.56754441	      1.38787422	     -5.20872055	      9.24416355	     33.12465583	     -8.25543027	     -5.48242196	    -64.20951358	     -5.22499304	     -1.00907483	      4.69214354	      5.07553511	      5.60231163	      1.72302776
      4.33500000	     -4.39743401	     -6.94082400	      0.55340519	      0.06198457	     -0.01634159	     -0.10317694	      8.21121494	     15.80195319	     12.48661479	    -17.25059548	      1.60260042	     -5.22963842	      9.26141723	     33.70503639	     -8.02983586	     -5.65459317	    -63.06238724	     -4.61812545	     -0.83631628	      4.72626436	      5.01184632	      5.43525422	      1.97346209
      4.34000000	     -4.40916029	     -6.76390416	      0.32423235	      0.06795552	     -0.01608142	     -0.10297397	      7.52187873	     15.62555158	     12.87835108	    -16.91441935	      1.80061661	     -5.23445933	      9.31437487	     34.23323925	     -7.83456664	     -5.83830414	    -61.85025699	     -4.04201973	     -0.60092974	      4.70955114	      4.92698490	      5.26879879	      2.28396471
      4.34500000	     -4.44498942	     -6.58727518	      0.12400713	      0.07388942	     -0.01591999	     -0.10283397	      6.88805961	     15.43943797	     13.21541216	    -16.61236608	      1.99802620	     -5.25381762	      9.39777225	     34.76451964	     -7.62054622	     -5.99016039	    -60.56801276	     -3.47140751	     -0.36219613	      4.64778647	      4.86297011	      5.10005381	      2.53672708
      4.35000000	     -4.48133937	     -6.41410157	     -0.07176883	      0.07982331	     -0.01581355	     -0.10274800	      6.26693224	     15.24937988	     13.53748950	    -16.32595546	      2.19619276	     -5.28588765	      9.50469986	     35.25986878	     -7.41044555	     -6.13324172	    -59.21453068	     -2.91615086	     -0.09032799	      4.51143672	      4.80343245	      4.94704326	      2.78993248
      4.35500000	     -4.51667989	     -6.24319057	     -0.25761900	      0.08574067	     -0.01577017	     -0.10269192	      5.66136887	     15.05890762	     13.84467784	    -16.06275187	      2.38489349	     -5.33731653	      9.62395476	     35.72146589	     -7.20021374	     -6.26225477	    -57.79722556	     -2.35569797	      0.20235174	      4.26230514	      4.74093847	      4.79388032	      3.03214136
      4.36000000	     -4.56995672	     -6.07805976	     -0.42492668	      0.09163928	     -0.01581927	     -0.10266038	      5.09273559	     14.87297868	     14.11479048	    -15.81888931	      2.57877559	     -5.40818343	      9.73300505	     36.17495288	     -6.99469081	     -6.38075946	    -56.32126868	     -1.79899024	      0.50494680	      3.92056463	      4.69839902	      4.64458526	      3.24206580
      4.36500000	     -4.70344003	     -5.93780304	     -0.51892893	      0.09745636	     -0.01603689	     -0.10277532	      4.65793589	     14.70635572	     14.29574570	    -15.63637915	      2.78356635	     -5.48305261	      9.79002079	     36.71301261	     -6.74288297	     -6.35914603	    -54.77863855	     -1.36034943	      0.75140542	      3.73023856	      4.72912090	      4.51369348	      3.33878442
      4.37000000	     -4.61588376	     -5.77701251	     -0.64324140	      0.10339168	     -0.01607493	     -0.10290070	      3.91723924	     14.51242941	     14.59187108	    -15.35625355	      2.91356966	     -5.71696022	      9.87692707	     36.94399176	     -6.52465870	     -6.48192329	    -53.26087400	     -0.48326623	      1.21870472	      2.00481164	      4.53716063	      4.38131590	      3.55197009
      4.37500000	     -4.79411759	     -5.65501500	     -0.83972826	      0.10919433	     -0.01644526	     -0.10290113	      3.56207484	     14.37896677	     14.79876766	    -15.23966884	      3.15520751	     -5.70099745	      9.94507897	     37.43816423	     -6.40726505	     -6.60862906	    -51.61241022	     -0.01537810	      1.59148491	      1.74679843	      4.60985520	      4.28744621	      3.77484553
      4.38000000	     -4.80862212	     -5.49769686	     -0.98986329	      0.11500837	     -0.01667018	     -0.10299849	      3.01303994	     14.19870272	     15.03171380	    -15.10285079	      3.39300262	     -5.76383442	      9.91846511	     37.69315115	     -6.22208953	     -6.71593625	    -49.88443991	      0.51420519	      1.96372126	      1.04355222	      4.50445017	      4.15648736	      3.99121316
      4.38500000	     -4.88032416	     -5.40528189	     -1.02812961	      0.12084122	     -0.01708419	     -0.10328289	      2.54082493	     14.07940813	     15.10532379	    -14.97283752	      3.63014074	     -5.85614860	      9.73425014	     38.04200800	     -6.02125257	     -6.69892200	    -48.23836674	      1.33428786	      2.51686593	     -0.86092077	      4.46975416	      4.08518513	      4.03674036
      4.39000000	     -5.05531274	     -5.31343502	     -1.14232521	      0.12658158	     -0.01764372	     -0.10342890	      2.22934706	     13.97693609	     15.22277704	    -14.92041664	      3.86940314	     -5.90477764	      9.78207806	     38.43690174	     -5.89527423	     -6.74466306	    -46.40544692	      1.65559384	      2.87295855	     -1.00721313	      4.52999684	      4.01140319	      4.13249966
      4.39500000	     -5.07506158	     -5.19357541	     -1.28773274	      0.13240821	     -0.01801492	     -0.10360350	      1.71380994	     13.82657525	     15.38568714	    -14.82575141	      4.12246933	     -5.86710780	      9.76003448	     38.58337399	     -5.78324067	     -6.91299444	    -44.50631326	      2.04944094	      3.28656880	     -1.48040142	      4.42577666	      3.93232891	      4.34280607
      4.40000000	     -5.06996366	     -5.09378494	     -1.37737244	      0.13818788	     -0.01845193	     -0.10384774	      1.20798895	     13.70054752	     15.45311999	    -14.79374185	      4.43895734	     -5.81445764	      9.64655656	     38.69035053	     -5.64339916	     -6.98029859	    -42.60478420	      2.53698780	      3.78636286	     -2.40520307	      4.28819200	      3.85509267	      4.49054704
      4.40500000	     -5.26242747	     -5.06882406	     -1.40271746	      0.14397832	     -0.01918289	     -0.10417039	      0.93231081	     13.65650172	     15.43966541	    -14.75878010	      4.62326305	     -5.84885884	      9.64511350	     39.02905254	     -5.54722657	     -6.99261027	    -40.67531502	      2.77242314	      4.22770242	     -2.64493581	      4.37300046	      3.85239538	      4.46534402
      4.41000000	     -5.18334414	     -4.98280079	     -1.54617457	      0.14979552	     -0.01958189	     -0.10440070	      0.35348062	     13.52712417	     15.47638812	    -14.74847990	      4.99344245	     -5.58677066	      9.57895710	     38.96626658	     -5.47653846	     -7.15673619	    -38.70615688	      3.25346385	      4.81421608	     -3.62602431	      4.14842613	      3.79965777	      4.67889261
      4.41500000	     -5.25633469	     -4.95120309	     -1.61681807	      0.15569910	     -0.02019606	     -0.10469778	     -0.06340364	     13.45446362	     15.46967708	    -14.72334100	      5.25984585	     -5.36440669	      9.56279874	     39.08761436	     -5.43856962	     -7.33551879	    -36.75888399	      3.60909023	      5.47783521	     -4.34651419	      4.11943452	      3.79494514	      4.73703258
      4.42000000	     -5.44122789	     -4.99201458	     -1.64196474	      0.16152456	     -0.02104894	     -0.10507780	     -0.33667593	     13.46894009	     15.41384054	    -14.70830640	      5.41058555	     -5.36290991	      9.58509789	     39.34269448	     -5.39770854	     -7.27950659	    -34.79847563	      3.75854819	      5.97935737	     -4.51953768	      4.19287075	      3.86597012	      4.74519127
